<svg height="512pt" viewBox="-31 0 512 512" width="512pt"  xmlns="http://www.w3.org/2000/svg"><path d="m299.574219 181h-29.574219v-30h29.574219c8.074219 0 15.023437-6.199219 15.410156-14.265625.410156-8.613281-6.460937-15.734375-14.984375-15.734375h-30v-29.574219c0-8.074219-6.199219-15.023437-14.265625-15.410156-8.613281-.410156-15.734375 6.460937-15.734375 14.984375v30h-30v-29.574219c0-8.074219-6.199219-15.023437-14.265625-15.410156-8.613281-.410156-15.734375 6.460937-15.734375 14.984375v30h-29.574219c-8.074219 0-15.023437 6.199219-15.410156 14.265625-.410156 8.613281 6.460937 15.734375 14.984375 15.734375h30v30h-29.574219c-8.074219 0-15.023437 6.199219-15.410156 14.265625-.410156 8.613281 6.460937 15.734375 14.984375 15.734375h30v29.574219c0 8.074219 6.199219 15.023437 14.265625 15.410156 8.613281.410156 15.734375-6.460937 15.734375-14.984375v-30h30v29.574219c0 8.074219 6.199219 15.023437 14.265625 15.410156 8.613281.410156 15.734375-6.460937 15.734375-14.984375v-30h30c8.523438 0 15.394531-7.121094 14.980469-15.734375-.382813-8.066406-7.335938-14.265625-15.40625-14.265625zm-89.574219 0v-30h30v30zm0 0"/><path d="m357.480469 294.320312c-31.140625 46.710938-81.386719 70.898438-132.480469 70.898438-51.210938 0-101.433594-24.28125-132.507812-70.949219-6.625-9.945312.574218-23.269531 12.523437-23.269531 5.042969 0 9.71875 2.554688 12.519531 6.746094 24.015625 35.988281 64.1875 57.472656 107.464844 57.472656 43.300781 0 83.5-21.507812 107.519531-57.539062 2.890625-4.328126 7.652344-6.679688 12.5-6.679688 11.882813 0 19.125 13.335938 12.460938 23.320312zm0 0"/><path d="m375 0h-300c-41.449219 0-75 34.53125-75 76v300c0 41.421875 33.578125 75 75 75h83.710938l55.597656 56.519531c2.820312 2.871094 6.671875 4.480469 10.691406 4.480469s7.871094-1.609375 10.691406-4.480469l55.597656-56.519531h83.710938c41.359375 0 75-33.648438 75-75v-300c0-41.453125-33.53125-76-75-76zm45 376c0 24.851562-20.148438 45-45 45h-90c-4.019531 0-7.871094 1.609375-10.691406 4.480469l-49.308594 50.128906-49.308594-50.128906c-2.820312-2.871094-6.671875-4.480469-10.691406-4.480469h-90c-24.851562 0-45-20.148438-45-45v-300c0-24.929688 20.609375-46 45-46h300c24.390625 0 45 21.070312 45 46zm0 0"/></svg>